<svg width="29" height="29" viewBox="0 0 29 29" fill="none" xmlns="http://www.w3.org/2000/svg">
<path d="M28.998 14.5005C28.998 21.8239 23.5696 27.8783 16.5177 28.8608C15.8584 28.9522 15.1838 29 14.499 29C13.7086 29 12.9324 28.937 12.1765 28.8151C5.27291 27.7036 0 21.7172 0 14.5005C0 6.49231 6.49208 0 14.5 0C22.5079 0 29 6.49231 29 14.5005H28.998Z" fill="#383D38"/>
<path d="M16.4686 11.6389V14.7977H20.376L19.7573 19.0527H16.4686V28.8562C15.8092 28.9477 15.1346 28.9954 14.4499 28.9954C13.6594 28.9954 12.8832 28.9324 12.1273 28.8105V19.0527H8.52368V14.7977H12.1273V10.9328C12.1273 8.53498 14.0709 6.59033 16.4696 6.59033V6.59237C16.4767 6.59237 16.4828 6.59033 16.4899 6.59033H20.3771V10.2703H17.8371C17.0823 10.2703 16.4696 10.883 16.4696 11.6379L16.4686 11.6389Z" fill="white"/>
</svg>
