<svg width="29" height="29" viewBox="0 0 29 29" fill="none" xmlns="http://www.w3.org/2000/svg">
<path d="M29 14.5C29 6.49188 22.5081 0 14.5 0C6.49188 0 0 6.49188 0 14.5C0 22.5081 6.49188 29 14.5 29C22.5081 29 29 22.5081 29 14.5Z" fill="#383D38"/>
<path d="M23.6305 11.4964C23.5164 10.395 23.2709 9.17736 22.3671 8.53749C21.6671 8.04129 20.747 8.02294 19.8881 8.02396C18.0724 8.02396 16.2557 8.02702 14.44 8.02804C12.6936 8.03008 10.9472 8.0311 9.20082 8.03314C8.47129 8.03314 7.76213 7.97709 7.08456 8.29295C6.50277 8.56398 6.04732 9.07954 5.77323 9.65318C5.39318 10.451 5.31371 11.3548 5.26786 12.2371C5.18329 13.8439 5.19246 15.4548 5.29333 17.0606C5.36771 18.2323 5.55621 19.5274 6.46201 20.2742C7.26491 20.9355 8.39792 20.9681 9.43924 20.9691C12.7446 20.9722 16.0509 20.9752 19.3573 20.9773C19.7811 20.9783 20.2233 20.9701 20.6553 20.9233C21.5051 20.8316 22.3151 20.588 22.8612 19.9584C23.4125 19.3236 23.5541 18.4402 23.6377 17.6037C23.8414 15.574 23.8394 13.525 23.6305 11.4964ZM12.5286 17.3459V11.6553L17.456 14.5001L12.5286 17.3459Z" fill="white"/>
</svg>
