<svg width="29" height="29" viewBox="0 0 29 29" fill="none" xmlns="http://www.w3.org/2000/svg">
<path d="M14.533 0H14.467C6.47709 0 0 6.47708 0 14.467V14.533C0 22.5229 6.47709 29 14.467 29H14.533C22.5229 29 29 22.5229 29 14.533V14.467C29 6.47708 22.5229 0 14.533 0Z" fill="#383D38"/>
<path d="M22.968 9.25059C22.5707 9.65192 22.0201 9.90084 21.4094 9.90084C21.3312 9.90084 21.255 9.89678 21.1788 9.88865C21.8158 9.50663 22.3076 8.9082 22.5525 8.19496C22.5525 8.19496 22.5535 8.19495 22.5535 8.19394C22.588 8.09843 22.6165 8.00191 22.6388 7.90234C22.1349 8.44083 21.446 8.80558 20.6728 8.89295C20.554 8.90718 20.4331 8.9143 20.3121 8.9143C20.2735 8.9143 20.2359 8.91328 20.1994 8.91125C19.9383 8.63693 19.6263 8.40933 19.2809 8.24271C18.8958 8.05474 18.465 7.944 18.0109 7.92978C17.9733 7.92775 17.9367 7.92673 17.8981 7.92673C17.513 7.92673 17.1432 7.9948 16.8018 8.12079C16.7145 8.15228 16.6291 8.18785 16.5458 8.22849C15.4637 8.73548 14.7149 9.83582 14.7149 11.1099C14.7149 11.371 14.7464 11.626 14.8064 11.8689C14.4752 11.8556 14.147 11.8241 13.8249 11.7754C13.7213 11.7591 13.6187 11.7408 13.516 11.7215C12.6951 11.5691 11.9118 11.307 11.1843 10.9494C10.533 10.6313 9.92649 10.2382 9.37378 9.78095C8.90946 9.39791 8.48477 8.97119 8.10478 8.50383C8.08853 8.48452 8.07226 8.46319 8.056 8.44389C8.03365 8.47741 8.01333 8.51195 7.99505 8.54751C7.72987 9.01183 7.5795 9.54829 7.5795 10.1213C7.5795 10.1386 7.5795 10.1579 7.58052 10.1752C7.58661 10.6039 7.67805 11.0124 7.84061 11.3842C7.9097 11.5488 7.99404 11.7043 8.09056 11.8526C8.37504 12.2905 8.76316 12.6552 9.2224 12.9072C9.24373 12.9204 9.26404 12.9316 9.28639 12.9418C9.25388 12.9479 9.21934 12.954 9.18581 12.957C9.09132 12.9692 8.9948 12.9753 8.89726 12.9753C8.40856 12.9753 7.95441 12.8229 7.58255 12.5628C7.58052 12.5902 7.58052 12.6177 7.58052 12.6461C7.58052 13.5554 7.96152 14.3754 8.57215 14.9535C9.04764 15.4066 9.66232 15.7124 10.3451 15.8008C10.0992 15.8912 9.83403 15.939 9.55665 15.939C9.25693 15.939 8.97042 15.8821 8.70829 15.7774C9.09945 17.0485 10.2648 17.9802 11.6547 18.0228C10.8064 18.9047 9.61356 19.4524 8.29478 19.4524C7.47486 19.4524 6.70369 19.24 6.03516 18.8692C7.64147 20.2591 9.73548 21.0983 12.0266 21.0983C17.0894 21.0983 21.193 16.9946 21.193 11.9318C21.193 11.6535 21.1808 11.3771 21.1554 11.1048C21.9926 10.7746 22.6571 10.0979 22.9711 9.25059H22.968Z" fill="white"/>
</svg>
