<svg width="29" height="29" viewBox="0 0 29 29" fill="none" xmlns="http://www.w3.org/2000/svg">
<path d="M14.533 0H14.467C6.47709 0 0 6.47708 0 14.467V14.533C0 22.5229 6.47709 29 14.467 29H14.533C22.5229 29 29 22.5229 29 14.533V14.467C29 6.47708 22.5229 0 14.533 0Z" fill="#383D38"/>
<path d="M18.9873 5.8999H10.0139C7.53485 5.8999 5.51807 7.91668 5.51807 10.3958V18.6051C5.51807 21.0842 7.53485 23.101 10.0139 23.101H18.9873C21.4664 23.101 23.4832 21.0842 23.4832 18.6051V10.3958C23.4832 7.91668 21.4664 5.8999 18.9873 5.8999ZM7.10406 10.3958C7.10406 8.79147 8.40963 7.48589 10.0139 7.48589H18.9873C20.5916 7.48589 21.8972 8.79147 21.8972 10.3958V18.6051C21.8972 20.2094 20.5916 21.515 18.9873 21.515H10.0139C8.40963 21.515 7.10406 20.2094 7.10406 18.6051V10.3958Z" fill="white"/>
<path d="M14.5008 18.6812C16.8061 18.6812 18.6827 16.8056 18.6827 14.4993C18.6827 12.1929 16.8071 10.3174 14.5008 10.3174C12.1944 10.3174 10.3188 12.1929 10.3188 14.4993C10.3188 16.8056 12.1944 18.6812 14.5008 18.6812ZM14.5008 11.9044C15.9323 11.9044 17.0967 13.0687 17.0967 14.5003C17.0967 15.9319 15.9323 17.0962 14.5008 17.0962C13.0692 17.0962 11.9048 15.9319 11.9048 14.5003C11.9048 13.0687 13.0692 11.9044 14.5008 11.9044Z" fill="white"/>
<path d="M19.0696 10.9933C19.6904 10.9933 20.1964 10.4883 20.1964 9.86651C20.1964 9.24471 19.6914 8.73975 19.0696 8.73975C18.4478 8.73975 17.9429 9.24471 17.9429 9.86651C17.9429 10.4883 18.4478 10.9933 19.0696 10.9933Z" fill="white"/>
</svg>
