<svg width="266" height="84" viewBox="0 0 266 84" fill="none" xmlns="http://www.w3.org/2000/svg">
<g clip-path="url(#clip0_1_4)">
<path d="M41.882 0.00292969C18.862 0.00292969 0.136719 18.7256 0.136719 41.7456C0.136719 64.7656 18.862 83.4883 41.882 83.4883C64.902 83.4883 83.6273 64.7656 83.6273 41.7456C83.6273 18.7256 64.902 0.00292969 41.882 0.00292969ZM41.882 78.2636C21.7434 78.2636 5.36141 61.8816 5.36141 41.7456C5.36141 21.6096 21.7434 5.22762 41.882 5.22762C62.018 5.22762 78.4052 21.6096 78.4052 41.7456C78.4052 61.8816 62.0206 78.2636 41.882 78.2636Z" fill="#ED6044"/>
<path d="M41.882 26.4473C33.4493 26.4473 26.5867 33.3099 26.5867 41.7452C26.5867 50.1804 33.4467 57.0431 41.882 57.0431C50.3172 57.0431 57.1798 50.1804 57.1798 41.7452C57.1798 33.3099 50.3172 26.4473 41.882 26.4473ZM41.882 51.8184C36.3281 51.8184 31.8114 47.299 31.8114 41.7452C31.8114 36.1913 36.3281 31.672 41.882 31.672C47.4332 31.672 51.9552 36.1913 51.9552 41.7452C51.9552 47.299 47.4358 51.8184 41.882 51.8184Z" fill="#ED6044"/>
<path d="M41.8821 18.2026C28.8987 18.2026 18.3396 28.7643 18.3396 41.7451C18.3396 43.1897 19.5099 44.3574 20.9519 44.3574C22.394 44.3574 23.5643 43.1897 23.5643 41.7451C23.5643 31.6458 31.7827 23.4273 41.8821 23.4273C43.3241 23.4273 44.4944 22.2596 44.4944 20.815C44.4944 19.3704 43.3241 18.2026 41.8821 18.2026Z" fill="#ED6044"/>
<path d="M62.812 39.1328C61.37 39.1328 60.1996 40.3005 60.1996 41.7452C60.1996 51.8445 51.9838 60.0629 41.8819 60.0629C40.4399 60.0629 39.2695 61.2306 39.2695 62.6753C39.2695 64.1199 40.4399 65.2876 41.8819 65.2876C54.8626 65.2876 65.4243 54.7259 65.4243 41.7452C65.4243 40.3005 64.254 39.1328 62.812 39.1328Z" fill="#ED6044"/>
<path d="M41.8819 7.81348C23.1696 7.81348 7.94751 23.0356 7.94751 41.7452C7.94751 43.1899 9.11784 44.3576 10.5599 44.3576C12.0019 44.3576 13.1722 43.1899 13.1722 41.7452C13.1722 25.9144 26.0511 13.0382 41.8819 13.0382C43.3239 13.0382 44.4942 11.8704 44.4942 10.4258C44.4942 8.9812 43.3239 7.81348 41.8819 7.81348Z" fill="#ED6044"/>
<path d="M73.2065 39.1328C71.7645 39.1328 70.5942 40.3005 70.5942 41.7452C70.5942 57.5734 57.7153 70.4522 41.8819 70.4522C40.4399 70.4522 39.2695 71.6199 39.2695 73.0646C39.2695 74.5092 40.4399 75.6769 41.8819 75.6769C60.5941 75.6769 75.8162 60.4548 75.8189 41.7452C75.8189 40.3005 74.6485 39.1328 73.2065 39.1328Z" fill="#ED6044"/>
<path d="M41.8821 46.8603C44.707 46.8603 46.997 44.5703 46.997 41.7453C46.997 38.9204 44.707 36.6304 41.8821 36.6304C39.0571 36.6304 36.7671 38.9204 36.7671 41.7453C36.7671 44.5703 39.0571 46.8603 41.8821 46.8603Z" fill="#ED6044"/>
</g>
<path d="M116.978 43.5747C115.717 41.4601 114.212 38.9341 112.462 35.9966C110.712 33.0487 109.556 31.1112 108.993 30.1841C108.441 29.2466 107.473 27.6268 106.087 25.3247C104.712 23.0122 103.285 20.6476 101.806 18.231H113.993L122.072 31.606L125.072 26.0435C126.499 23.5122 127.457 21.6893 127.947 20.5747C127.988 20.5018 128.134 20.1632 128.384 19.5591C128.634 18.9445 128.853 18.4914 129.04 18.1997C129.155 18.033 129.379 17.9497 129.712 17.9497H129.931C130.087 17.9914 130.202 18.0747 130.275 18.1997C130.348 18.3247 130.384 18.4549 130.384 18.5903C130.384 18.6945 130.363 18.8091 130.322 18.9341C130.113 19.5278 129.598 20.5435 128.775 21.981C127.962 23.4185 127.285 24.6007 126.743 25.5278C123.952 30.3612 120.697 36.3768 116.978 43.5747ZM134.4 41.981C134.4 41.5539 134.41 40.9132 134.431 40.0591C134.452 39.2049 134.462 38.5643 134.462 38.1372V26.8091C134.462 26.382 134.452 25.7466 134.431 24.9028C134.41 24.0591 134.4 23.4289 134.4 23.0122H143.447C143.426 23.8664 143.405 24.606 143.384 25.231C143.363 25.856 143.353 26.382 143.353 26.8091V38.1372C143.353 38.5643 143.363 39.1007 143.384 39.7466C143.405 40.382 143.426 41.1268 143.447 41.981H134.4ZM138.743 22.3716C138.056 22.3716 137.358 22.2466 136.65 21.9966C135.941 21.7466 135.353 21.3872 134.884 20.9185C134.426 20.4393 134.197 19.8872 134.197 19.2622C134.197 18.6268 134.431 18.0851 134.9 17.6372C135.379 17.1789 135.973 16.8299 136.681 16.5903C137.389 16.3403 138.066 16.2153 138.712 16.2153C139.827 16.2153 140.91 16.481 141.962 17.0122C143.014 17.5435 143.54 18.2622 143.54 19.1685C143.54 19.8039 143.285 20.3664 142.775 20.856C142.264 21.3455 141.639 21.7205 140.9 21.981C140.16 22.2414 139.441 22.3716 138.743 22.3716ZM145.306 41.981H147.54C147.54 41.5539 147.551 40.9132 147.572 40.0591C147.592 39.2049 147.603 38.5643 147.603 38.1372V26.8091C147.603 26.382 147.592 25.7466 147.572 24.9028C147.551 24.0591 147.54 23.4289 147.54 23.0122H156.634C156.624 23.4393 156.608 23.8664 156.587 24.2935C156.577 24.7205 156.561 25.1528 156.54 25.5903C157.394 25.0174 158.243 24.507 159.087 24.0591C159.941 23.6112 160.816 23.257 161.712 22.9966C162.618 22.7257 163.54 22.5903 164.478 22.5903H165.087C166.014 22.6632 166.9 22.8664 167.743 23.1997C168.587 23.533 169.259 24.0226 169.759 24.6685C170.228 25.3039 170.535 26.007 170.681 26.7778C170.827 27.5487 170.9 28.4757 170.9 29.5591V38.1372C170.9 38.3143 170.894 38.4549 170.884 38.5591C170.884 38.6528 170.879 38.757 170.868 38.8716C170.868 39.2049 170.889 39.6945 170.931 40.3403C170.983 40.9757 171.009 41.5226 171.009 41.981H161.915C161.915 41.6372 161.926 41.1164 161.947 40.4185C161.967 39.7205 161.978 39.2049 161.978 38.8716V26.1997C161.978 25.7101 161.874 25.356 161.665 25.1372C161.457 24.908 161.176 24.7935 160.822 24.7935C160.53 24.7935 160.165 24.8768 159.728 25.0435C159.29 25.2101 158.92 25.3872 158.618 25.5747C158.316 25.7518 157.947 25.9862 157.509 26.2778C157.072 26.5695 156.749 26.7882 156.54 26.9341V38.1372C156.54 38.5643 156.551 39.1007 156.572 39.7466C156.592 40.382 156.613 41.1268 156.634 41.981H145.306ZM183.243 39.5747L177.259 29.8872C176.79 29.1268 176.316 28.4028 175.837 27.7153C175.358 27.0174 174.816 26.2466 174.212 25.4028C173.608 24.5591 173.045 23.7622 172.525 23.0122H183.665C184.332 24.5122 185.103 25.9914 185.978 27.4497C186.853 28.908 187.822 30.3195 188.884 31.6841L191.759 27.1685C191.822 27.0747 192.217 26.3664 192.947 25.0435C193.676 23.7205 194.134 22.9653 194.322 22.7778C194.457 22.6737 194.603 22.6216 194.759 22.6216C194.999 22.6216 195.212 22.6945 195.4 22.8403C195.598 23.0382 195.697 23.2518 195.697 23.481C195.697 23.5955 195.676 23.7153 195.634 23.8403C195.426 24.257 195.124 24.6632 194.728 25.0591C193.842 26.132 193.15 27.0591 192.65 27.8403L185.322 38.8403C183.311 41.8091 181.384 43.2935 179.54 43.2935H179.368C178.837 43.2935 178.332 43.1632 177.853 42.9028C177.374 42.6424 177.134 42.283 177.134 41.8247C177.144 41.783 177.15 41.7414 177.15 41.6997C177.16 41.658 177.165 41.6112 177.165 41.5591C177.207 41.3612 177.301 41.2049 177.447 41.0903C177.603 40.9757 177.775 40.9185 177.962 40.9185C178.275 40.9185 178.801 41.0799 179.54 41.4028C179.874 41.5278 180.129 41.5903 180.306 41.5903C181.223 41.5903 182.202 40.9185 183.243 39.5747ZM199.681 21.7622C199.681 21.3351 199.67 20.6997 199.65 19.856C199.629 19.0122 199.618 18.3768 199.618 17.9497H208.665C208.644 18.8039 208.624 19.5487 208.603 20.1841C208.582 20.8091 208.572 21.3351 208.572 21.7622V38.1372C208.572 38.5643 208.582 39.1007 208.603 39.7466C208.624 40.382 208.644 41.1268 208.665 41.981H199.618C199.618 41.5539 199.629 40.9132 199.65 40.0591C199.67 39.2049 199.681 38.5643 199.681 38.1372V21.7622ZM156.259 70.5747C154.999 68.4601 153.493 65.9341 151.743 62.9966C149.993 60.0487 148.837 58.1112 148.275 57.1841C147.723 56.2466 146.754 54.6268 145.368 52.3247C143.993 50.0122 142.566 47.6476 141.087 45.231H153.275L161.353 58.606L164.353 53.0435C165.78 50.5122 166.738 48.6893 167.228 47.5747C167.269 47.5018 167.415 47.1632 167.665 46.5591C167.915 45.9445 168.134 45.4914 168.322 45.1997C168.436 45.033 168.66 44.9497 168.993 44.9497H169.212C169.368 44.9914 169.483 45.0747 169.556 45.1997C169.629 45.3247 169.665 45.4549 169.665 45.5903C169.665 45.6945 169.644 45.8091 169.603 45.9341C169.394 46.5278 168.879 47.5435 168.056 48.981C167.243 50.4185 166.566 51.6007 166.025 52.5278C163.233 57.3612 159.978 63.3768 156.259 70.5747ZM186.15 68.981V67.2778C184.004 68.8195 181.978 69.5903 180.072 69.5903H179.884C178.29 69.5695 176.832 69.1632 175.509 68.3716C174.186 67.5695 173.295 66.4497 172.837 65.0122C172.629 64.231 172.525 63.5278 172.525 62.9028C172.525 61.9966 172.697 61.1476 173.04 60.356C173.384 59.5539 173.874 58.8507 174.509 58.2466C175.155 57.6424 175.931 57.1685 176.837 56.8247C177.952 56.3976 179.16 56.1841 180.462 56.1841C181.035 56.1841 181.65 56.2362 182.306 56.3403C182.973 56.4445 183.624 56.5955 184.259 56.7935C184.894 56.981 185.525 57.2153 186.15 57.4966V53.5903C186.15 52.5591 185.905 51.8195 185.415 51.3716C184.936 50.9237 184.16 50.6685 183.087 50.606H182.478C181.894 50.606 181.327 50.6632 180.775 50.7778C180.223 50.882 179.723 51.0382 179.275 51.2466C179.087 51.3403 178.717 51.6476 178.165 52.1685C177.613 52.6789 177.139 53.0799 176.743 53.3716C176.358 53.6632 176.009 53.8091 175.697 53.8091C175.54 53.8091 175.4 53.7674 175.275 53.6841C174.952 53.4653 174.79 53.2205 174.79 52.9497C174.79 52.4393 175.223 51.9132 176.087 51.3716C176.952 50.8195 177.65 50.4601 178.181 50.2935C179.973 49.658 181.967 49.3403 184.165 49.3403C185.405 49.3403 186.738 49.4445 188.165 49.6528C190.613 50.0903 192.426 50.8924 193.603 52.0591C194.249 52.632 194.655 53.3039 194.822 54.0747C194.999 54.8455 195.087 55.8455 195.087 57.0747V64.7622C195.087 65.5851 195.144 66.3091 195.259 66.9341C195.374 67.5591 195.582 68.2414 195.884 68.981H186.15ZM186.15 66.0747V58.8091C185.67 58.4132 185.139 58.0903 184.556 57.8403C183.973 57.5903 183.363 57.4653 182.728 57.4653C181.769 57.4653 181.29 58.1997 181.29 59.6685V66.356C181.29 67.3976 181.644 67.9185 182.353 67.9185C182.374 67.908 182.394 67.9028 182.415 67.9028C182.436 67.8924 182.457 67.8872 182.478 67.8872C183.113 67.8143 183.712 67.6268 184.275 67.3247C184.837 67.0122 185.462 66.5955 186.15 66.0747ZM222.712 50.0122C222.691 50.8664 222.67 51.606 222.65 52.231C222.629 52.856 222.618 53.382 222.618 53.8091V65.1372C222.618 65.5643 222.629 66.1007 222.65 66.7466C222.67 67.382 222.691 68.1268 222.712 68.981H213.665C213.676 68.7935 213.681 68.5278 213.681 68.1841C213.691 67.8403 213.697 67.4966 213.697 67.1528C213.707 66.8091 213.717 66.5435 213.728 66.356C212.269 67.356 210.926 68.1112 209.697 68.6216C208.467 69.1216 207.155 69.3716 205.759 69.3716H205.212C203.025 69.1945 201.457 68.4966 200.509 67.2778C200.019 66.6528 199.697 65.9757 199.54 65.2466C199.394 64.5174 199.322 63.6632 199.322 62.6841C199.332 62.4966 199.337 62.3247 199.337 62.1685C199.348 62.0122 199.353 61.8195 199.353 61.5903V53.8091C199.353 53.2466 199.348 52.8872 199.337 52.731C199.337 52.5643 199.327 52.2049 199.306 51.6528C199.295 51.1007 199.28 50.5539 199.259 50.0122H208.353C208.353 50.4497 208.327 50.9966 208.275 51.6528C208.233 52.2987 208.212 52.783 208.212 53.106C208.223 53.231 208.228 53.3455 208.228 53.4497C208.238 53.5435 208.243 53.6632 208.243 53.8091V65.7778C208.243 66.7153 208.618 67.1841 209.368 67.1841C209.941 67.1841 210.65 66.9445 211.493 66.4653C212.348 65.9757 213.092 65.4914 213.728 65.0122V53.8091C213.728 53.382 213.717 52.7466 213.697 51.9028C213.676 51.0591 213.665 50.4289 213.665 50.0122H222.712ZM226.868 48.7622C226.868 48.3351 226.858 47.6997 226.837 46.856C226.816 46.0122 226.806 45.3768 226.806 44.9497H235.853C235.832 45.8039 235.811 46.5487 235.79 47.1841C235.769 47.8091 235.759 48.3351 235.759 48.7622V65.1372C235.759 65.5643 235.769 66.1007 235.79 66.7466C235.811 67.382 235.832 68.1268 235.853 68.981H226.806C226.806 68.5539 226.816 67.9132 226.837 67.0591C226.858 66.2049 226.868 65.5643 226.868 65.1372V48.7622ZM249.587 44.0278C249.462 46.757 249.379 48.7518 249.337 50.0122C249.389 50.0122 249.431 50.0174 249.462 50.0278C249.504 50.0278 249.545 50.033 249.587 50.0435C249.858 50.0435 250.29 50.0226 250.884 49.981C251.478 49.9289 251.941 49.9028 252.275 49.9028H252.759C253.061 49.9028 253.212 50.0955 253.212 50.481V50.7153C253.16 51.0695 252.915 51.2466 252.478 51.2466C252.426 51.2362 252.379 51.231 252.337 51.231C252.295 51.2205 252.243 51.2153 252.181 51.2153C251.566 51.1737 250.618 51.1528 249.337 51.1528L249.15 65.7778C249.15 66.3612 249.243 66.8091 249.431 67.1216C249.629 67.4237 249.884 67.5747 250.197 67.5747C250.436 67.5747 250.712 67.4757 251.025 67.2778C251.348 67.0695 251.639 66.8143 251.9 66.5122C252.035 66.356 252.275 65.9757 252.618 65.3716C252.962 64.757 253.243 64.4132 253.462 64.3403C253.504 64.3299 253.545 64.3247 253.587 64.3247C253.629 64.3143 253.676 64.3091 253.728 64.3091C253.863 64.3091 253.978 64.3507 254.072 64.4341C254.165 64.5174 254.228 64.6164 254.259 64.731V64.8872C254.259 65.1164 254.092 65.5226 253.759 66.106C252.697 67.6789 251.264 68.6893 249.462 69.1372C248.493 69.4393 247.426 69.5903 246.259 69.5903C245.113 69.5903 244.124 69.408 243.29 69.0435C242.582 68.7518 241.993 68.3143 241.525 67.731C241.066 67.1372 240.733 66.4601 240.525 65.6997C240.316 64.9393 240.212 64.158 240.212 63.356C240.223 63.3143 240.228 63.2778 240.228 63.2466C240.238 63.2153 240.243 63.1841 240.243 63.1528L240.415 51.4185C240.342 51.4185 240.144 51.4289 239.822 51.4497C239.499 51.4705 239.249 51.481 239.072 51.481C238.197 51.481 237.702 51.2778 237.587 50.8716C237.587 50.8403 237.582 50.8143 237.572 50.7935C237.572 50.7622 237.566 50.7362 237.556 50.7153C237.556 50.5487 237.624 50.408 237.759 50.2935C237.905 50.1685 238.051 50.106 238.197 50.106H238.65C238.993 50.106 239.269 50.1112 239.478 50.1216C239.686 50.1216 239.91 50.1268 240.15 50.1372H240.447V47.9185C243.363 46.8143 246.41 45.5174 249.587 44.0278Z" fill="#FFE2A9"/>
<defs>
<clipPath id="clip0_1_4">
<rect width="83.4906" height="83.4906" fill="white" transform="translate(0.136719)"/>
</clipPath>
</defs>
</svg>
