<svg width="212" height="59" viewBox="0 0 212 59" fill="none" xmlns="http://www.w3.org/2000/svg">
<g clip-path="url(#clip0_1_103)">
<path d="M29.5 0.00206375C13.2325 0.00206375 0 13.2328 0 29.5002C0 45.7677 13.2325 58.9984 29.5 58.9984C45.7675 58.9984 59 45.7677 59 29.5002C59 13.2328 45.7675 0.00206375 29.5 0.00206375ZM29.5 55.3063C15.2687 55.3063 3.69212 43.7296 3.69212 29.5002C3.69212 15.2708 15.2687 3.69418 29.5 3.69418C43.7294 3.69418 55.3097 15.2708 55.3097 29.5002C55.3097 43.7296 43.7313 55.3063 29.5 55.3063Z" fill="#171717"/>
<path d="M29.5 18.6895C23.5409 18.6895 18.6913 23.5391 18.6913 29.5C18.6913 35.4609 23.539 40.3105 29.5 40.3105C35.4609 40.3105 40.3105 35.4609 40.3105 29.5C40.3105 23.5391 35.4609 18.6895 29.5 18.6895ZM29.5 36.6184C25.5752 36.6184 22.3834 33.4247 22.3834 29.5C22.3834 25.5753 25.5752 22.3816 29.5 22.3816C33.4228 22.3816 36.6183 25.5753 36.6183 29.5C36.6183 33.4247 33.4247 36.6184 29.5 36.6184Z" fill="#171717"/>
<path d="M29.5 12.8633C20.325 12.8633 12.8633 20.3269 12.8633 29.5C12.8633 30.5209 13.6903 31.3461 14.7093 31.3461C15.7284 31.3461 16.5554 30.5209 16.5554 29.5C16.5554 22.3631 22.3631 16.5554 29.5 16.5554C30.519 16.5554 31.346 15.7303 31.346 14.7094C31.346 13.6885 30.519 12.8633 29.5 12.8633Z" fill="#171717"/>
<path d="M44.2906 27.6539C43.2716 27.6539 42.4445 28.4791 42.4445 29.5C42.4445 36.6369 36.6387 42.4446 29.5 42.4446C28.481 42.4446 27.6539 43.2697 27.6539 44.2906C27.6539 45.3115 28.481 46.1367 29.5 46.1367C38.673 46.1367 46.1367 38.6731 46.1367 29.5C46.1367 28.4791 45.3096 27.6539 44.2906 27.6539Z" fill="#171717"/>
<path d="M29.4999 5.52156C16.2766 5.52156 5.51965 16.2785 5.51965 29.5C5.51965 30.5209 6.34669 31.3461 7.36571 31.3461C8.38473 31.3461 9.21177 30.5209 9.21177 29.5C9.21177 18.3129 18.3128 9.21367 29.4999 9.21367C30.519 9.21367 31.346 8.38848 31.346 7.36761C31.346 6.34674 30.519 5.52156 29.4999 5.52156Z" fill="#171717"/>
<path d="M51.6361 27.6539C50.617 27.6539 49.79 28.4791 49.79 29.5C49.79 40.6853 40.6889 49.7863 29.5 49.7863C28.481 49.7863 27.6539 50.6115 27.6539 51.6324C27.6539 52.6533 28.481 53.4784 29.5 53.4784C42.7233 53.4784 53.4803 42.7215 53.4821 29.5C53.4821 28.4791 52.6551 27.6539 51.6361 27.6539Z" fill="#171717"/>
<path d="M29.5 33.1146C31.4962 33.1146 33.1145 31.4963 33.1145 29.5C33.1145 27.5037 31.4962 25.8854 29.5 25.8854C27.5037 25.8854 25.8854 27.5037 25.8854 29.5C25.8854 31.4963 27.5037 33.1146 29.5 33.1146Z" fill="#171717"/>
</g>
<path d="M107.449 32.1953C106.504 30.6094 105.375 28.7148 104.062 26.5117C102.75 24.3008 101.883 22.8477 101.461 22.1523C101.047 21.4492 100.32 20.2344 99.2812 18.5078C98.25 16.7734 97.1797 15 96.0703 13.1875H105.211L111.27 23.2188L113.52 19.0469C114.59 17.1484 115.309 15.7812 115.676 14.9453C115.707 14.8906 115.816 14.6367 116.004 14.1836C116.191 13.7227 116.355 13.3828 116.496 13.1641C116.582 13.0391 116.75 12.9766 117 12.9766H117.164C117.281 13.0078 117.367 13.0703 117.422 13.1641C117.477 13.2578 117.504 13.3555 117.504 13.457C117.504 13.5352 117.488 13.6211 117.457 13.7148C117.301 14.1602 116.914 14.9219 116.297 16C115.688 17.0781 115.18 17.9648 114.773 18.6602C112.68 22.2852 110.238 26.7969 107.449 32.1953ZM120.516 31C120.516 30.6797 120.523 30.1992 120.539 29.5586C120.555 28.918 120.562 28.4375 120.562 28.1172V19.6211C120.562 19.3008 120.555 18.8242 120.539 18.1914C120.523 17.5586 120.516 17.0859 120.516 16.7734H127.301C127.285 17.4141 127.27 17.9688 127.254 18.4375C127.238 18.9062 127.23 19.3008 127.23 19.6211V28.1172C127.23 28.4375 127.238 28.8398 127.254 29.3242C127.27 29.8008 127.285 30.3594 127.301 31H120.516ZM123.773 16.293C123.258 16.293 122.734 16.1992 122.203 16.0117C121.672 15.8242 121.23 15.5547 120.879 15.2031C120.535 14.8438 120.363 14.4297 120.363 13.9609C120.363 13.4844 120.539 13.0781 120.891 12.7422C121.25 12.3984 121.695 12.1367 122.227 11.957C122.758 11.7695 123.266 11.6758 123.75 11.6758C124.586 11.6758 125.398 11.875 126.188 12.2734C126.977 12.6719 127.371 13.2109 127.371 13.8906C127.371 14.3672 127.18 14.7891 126.797 15.1562C126.414 15.5234 125.945 15.8047 125.391 16C124.836 16.1953 124.297 16.293 123.773 16.293ZM128.695 31H130.371C130.371 30.6797 130.379 30.1992 130.395 29.5586C130.41 28.918 130.418 28.4375 130.418 28.1172V19.6211C130.418 19.3008 130.41 18.8242 130.395 18.1914C130.379 17.5586 130.371 17.0859 130.371 16.7734H137.191C137.184 17.0938 137.172 17.4141 137.156 17.7344C137.148 18.0547 137.137 18.3789 137.121 18.707C137.762 18.2773 138.398 17.8945 139.031 17.5586C139.672 17.2227 140.328 16.957 141 16.7617C141.68 16.5586 142.371 16.457 143.074 16.457H143.531C144.227 16.5117 144.891 16.6641 145.523 16.9141C146.156 17.1641 146.66 17.5312 147.035 18.0156C147.387 18.4922 147.617 19.0195 147.727 19.5977C147.836 20.1758 147.891 20.8711 147.891 21.6836V28.1172C147.891 28.25 147.887 28.3555 147.879 28.4336C147.879 28.5039 147.875 28.582 147.867 28.668C147.867 28.918 147.883 29.2852 147.914 29.7695C147.953 30.2461 147.973 30.6562 147.973 31H141.152C141.152 30.7422 141.16 30.3516 141.176 29.8281C141.191 29.3047 141.199 28.918 141.199 28.668V19.1641C141.199 18.7969 141.121 18.5312 140.965 18.3672C140.809 18.1953 140.598 18.1094 140.332 18.1094C140.113 18.1094 139.84 18.1719 139.512 18.2969C139.184 18.4219 138.906 18.5547 138.68 18.6953C138.453 18.8281 138.176 19.0039 137.848 19.2227C137.52 19.4414 137.277 19.6055 137.121 19.7148V28.1172C137.121 28.4375 137.129 28.8398 137.145 29.3242C137.16 29.8008 137.176 30.3594 137.191 31H128.695ZM157.148 29.1953L152.66 21.9297C152.309 21.3594 151.953 20.8164 151.594 20.3008C151.234 19.7773 150.828 19.1992 150.375 18.5664C149.922 17.9336 149.5 17.3359 149.109 16.7734H157.465C157.965 17.8984 158.543 19.0078 159.199 20.1016C159.855 21.1953 160.582 22.2539 161.379 23.2773L163.535 19.8906C163.582 19.8203 163.879 19.2891 164.426 18.2969C164.973 17.3047 165.316 16.7383 165.457 16.5977C165.559 16.5195 165.668 16.4805 165.785 16.4805C165.965 16.4805 166.125 16.5352 166.266 16.6445C166.414 16.793 166.488 16.9531 166.488 17.125C166.488 17.2109 166.473 17.3008 166.441 17.3945C166.285 17.707 166.059 18.0117 165.762 18.3086C165.098 19.1133 164.578 19.8086 164.203 20.3945L158.707 28.6445C157.199 30.8711 155.754 31.9844 154.371 31.9844H154.242C153.844 31.9844 153.465 31.8867 153.105 31.6914C152.746 31.4961 152.566 31.2266 152.566 30.8828C152.574 30.8516 152.578 30.8203 152.578 30.7891C152.586 30.7578 152.59 30.7227 152.59 30.6836C152.621 30.5352 152.691 30.418 152.801 30.332C152.918 30.2461 153.047 30.2031 153.188 30.2031C153.422 30.2031 153.816 30.3242 154.371 30.5664C154.621 30.6602 154.812 30.707 154.945 30.707C155.633 30.707 156.367 30.2031 157.148 29.1953ZM169.477 15.8359C169.477 15.5156 169.469 15.0391 169.453 14.4062C169.438 13.7734 169.43 13.2969 169.43 12.9766H176.215C176.199 13.6172 176.184 14.1758 176.168 14.6523C176.152 15.1211 176.145 15.5156 176.145 15.8359V28.1172C176.145 28.4375 176.152 28.8398 176.168 29.3242C176.184 29.8008 176.199 30.3594 176.215 31H169.43C169.43 30.6797 169.438 30.1992 169.453 29.5586C169.469 28.918 169.477 28.4375 169.477 28.1172V15.8359ZM136.91 52.1953C135.965 50.6094 134.836 48.7148 133.523 46.5117C132.211 44.3008 131.344 42.8477 130.922 42.1523C130.508 41.4492 129.781 40.2344 128.742 38.5078C127.711 36.7734 126.641 35 125.531 33.1875H134.672L140.73 43.2188L142.98 39.0469C144.051 37.1484 144.77 35.7812 145.137 34.9453C145.168 34.8906 145.277 34.6367 145.465 34.1836C145.652 33.7227 145.816 33.3828 145.957 33.1641C146.043 33.0391 146.211 32.9766 146.461 32.9766H146.625C146.742 33.0078 146.828 33.0703 146.883 33.1641C146.938 33.2578 146.965 33.3555 146.965 33.457C146.965 33.5352 146.949 33.6211 146.918 33.7148C146.762 34.1602 146.375 34.9219 145.758 36C145.148 37.0781 144.641 37.9648 144.234 38.6602C142.141 42.2852 139.699 46.7969 136.91 52.1953ZM159.328 51V49.7227C157.719 50.8789 156.199 51.457 154.77 51.457H154.629C153.434 51.4414 152.34 51.1367 151.348 50.543C150.355 49.9414 149.688 49.1016 149.344 48.0234C149.188 47.4375 149.109 46.9102 149.109 46.4414C149.109 45.7617 149.238 45.125 149.496 44.5312C149.754 43.9297 150.121 43.4023 150.598 42.9492C151.082 42.4961 151.664 42.1406 152.344 41.8828C153.18 41.5625 154.086 41.4023 155.062 41.4023C155.492 41.4023 155.953 41.4414 156.445 41.5195C156.945 41.5977 157.434 41.7109 157.91 41.8594C158.387 42 158.859 42.1758 159.328 42.3867V39.457C159.328 38.6836 159.145 38.1289 158.777 37.793C158.418 37.457 157.836 37.2656 157.031 37.2188H156.574C156.137 37.2188 155.711 37.2617 155.297 37.3477C154.883 37.4258 154.508 37.543 154.172 37.6992C154.031 37.7695 153.754 38 153.34 38.3906C152.926 38.7734 152.57 39.0742 152.273 39.293C151.984 39.5117 151.723 39.6211 151.488 39.6211C151.371 39.6211 151.266 39.5898 151.172 39.5273C150.93 39.3633 150.809 39.1797 150.809 38.9766C150.809 38.5938 151.133 38.1992 151.781 37.793C152.43 37.3789 152.953 37.1094 153.352 36.9844C154.695 36.5078 156.191 36.2695 157.84 36.2695C158.77 36.2695 159.77 36.3477 160.84 36.5039C162.676 36.832 164.035 37.4336 164.918 38.3086C165.402 38.7383 165.707 39.2422 165.832 39.8203C165.965 40.3984 166.031 41.1484 166.031 42.0703V47.8359C166.031 48.4531 166.074 48.9961 166.16 49.4648C166.246 49.9336 166.402 50.4453 166.629 51H159.328ZM159.328 48.8203V43.3711C158.969 43.0742 158.57 42.832 158.133 42.6445C157.695 42.457 157.238 42.3633 156.762 42.3633C156.043 42.3633 155.684 42.9141 155.684 44.0156V49.0312C155.684 49.8125 155.949 50.2031 156.48 50.2031C156.496 50.1953 156.512 50.1914 156.527 50.1914C156.543 50.1836 156.559 50.1797 156.574 50.1797C157.051 50.125 157.5 49.9844 157.922 49.7578C158.344 49.5234 158.812 49.2109 159.328 48.8203ZM186.75 36.7734C186.734 37.4141 186.719 37.9688 186.703 38.4375C186.688 38.9062 186.68 39.3008 186.68 39.6211V48.1172C186.68 48.4375 186.688 48.8398 186.703 49.3242C186.719 49.8008 186.734 50.3594 186.75 51H179.965C179.973 50.8594 179.977 50.6602 179.977 50.4023C179.984 50.1445 179.988 49.8867 179.988 49.6289C179.996 49.3711 180.004 49.1719 180.012 49.0312C178.918 49.7812 177.91 50.3477 176.988 50.7305C176.066 51.1055 175.082 51.293 174.035 51.293H173.625C171.984 51.1602 170.809 50.6367 170.098 49.7227C169.73 49.2539 169.488 48.7461 169.371 48.1992C169.262 47.6523 169.207 47.0117 169.207 46.2773C169.215 46.1367 169.219 46.0078 169.219 45.8906C169.227 45.7734 169.23 45.6289 169.23 45.457V39.6211C169.23 39.1992 169.227 38.9297 169.219 38.8125C169.219 38.6875 169.211 38.418 169.195 38.0039C169.188 37.5898 169.176 37.1797 169.16 36.7734H175.98C175.98 37.1016 175.961 37.5117 175.922 38.0039C175.891 38.4883 175.875 38.8516 175.875 39.0938C175.883 39.1875 175.887 39.2734 175.887 39.3516C175.895 39.4219 175.898 39.5117 175.898 39.6211V48.5977C175.898 49.3008 176.18 49.6523 176.742 49.6523C177.172 49.6523 177.703 49.4727 178.336 49.1133C178.977 48.7461 179.535 48.3828 180.012 48.0234V39.6211C180.012 39.3008 180.004 38.8242 179.988 38.1914C179.973 37.5586 179.965 37.0859 179.965 36.7734H186.75ZM189.867 35.8359C189.867 35.5156 189.859 35.0391 189.844 34.4062C189.828 33.7734 189.82 33.2969 189.82 32.9766H196.605C196.59 33.6172 196.574 34.1758 196.559 34.6523C196.543 35.1211 196.535 35.5156 196.535 35.8359V48.1172C196.535 48.4375 196.543 48.8398 196.559 49.3242C196.574 49.8008 196.59 50.3594 196.605 51H189.82C189.82 50.6797 189.828 50.1992 189.844 49.5586C189.859 48.918 189.867 48.4375 189.867 48.1172V35.8359ZM206.906 32.2852C206.812 34.332 206.75 35.8281 206.719 36.7734C206.758 36.7734 206.789 36.7773 206.812 36.7852C206.844 36.7852 206.875 36.7891 206.906 36.7969C207.109 36.7969 207.434 36.7812 207.879 36.75C208.324 36.7109 208.672 36.6914 208.922 36.6914H209.285C209.512 36.6914 209.625 36.8359 209.625 37.125V37.3008C209.586 37.5664 209.402 37.6992 209.074 37.6992C209.035 37.6914 209 37.6875 208.969 37.6875C208.938 37.6797 208.898 37.6758 208.852 37.6758C208.391 37.6445 207.68 37.6289 206.719 37.6289L206.578 48.5977C206.578 49.0352 206.648 49.3711 206.789 49.6055C206.938 49.832 207.129 49.9453 207.363 49.9453C207.543 49.9453 207.75 49.8711 207.984 49.7227C208.227 49.5664 208.445 49.375 208.641 49.1484C208.742 49.0312 208.922 48.7461 209.18 48.293C209.438 47.832 209.648 47.5742 209.812 47.5195C209.844 47.5117 209.875 47.5078 209.906 47.5078C209.938 47.5 209.973 47.4961 210.012 47.4961C210.113 47.4961 210.199 47.5273 210.27 47.5898C210.34 47.6523 210.387 47.7266 210.41 47.8125V47.9297C210.41 48.1016 210.285 48.4062 210.035 48.8438C209.238 50.0234 208.164 50.7812 206.812 51.1172C206.086 51.3438 205.285 51.457 204.41 51.457C203.551 51.457 202.809 51.3203 202.184 51.0469C201.652 50.8281 201.211 50.5 200.859 50.0625C200.516 49.6172 200.266 49.1094 200.109 48.5391C199.953 47.9688 199.875 47.3828 199.875 46.7812C199.883 46.75 199.887 46.7227 199.887 46.6992C199.895 46.6758 199.898 46.6523 199.898 46.6289L200.027 37.8281C199.973 37.8281 199.824 37.8359 199.582 37.8516C199.34 37.8672 199.152 37.875 199.02 37.875C198.363 37.875 197.992 37.7227 197.906 37.418C197.906 37.3945 197.902 37.375 197.895 37.3594C197.895 37.3359 197.891 37.3164 197.883 37.3008C197.883 37.1758 197.934 37.0703 198.035 36.9844C198.145 36.8906 198.254 36.8438 198.363 36.8438H198.703C198.961 36.8438 199.168 36.8477 199.324 36.8555C199.48 36.8555 199.648 36.8594 199.828 36.8672H200.051V35.2031C202.238 34.375 204.523 33.4023 206.906 32.2852Z" fill="#171717"/>
<defs>
<clipPath id="clip0_1_103">
<rect width="59" height="59" fill="white"/>
</clipPath>
</defs>
</svg>
