<svg width="143" height="43" viewBox="0 0 143 43" fill="none" xmlns="http://www.w3.org/2000/svg">
<g clip-path="url(#clip0_1_273)">
<path d="M20.5174 0.984104C9.20329 0.984104 0 10.1861 0 21.5002C0 32.8143 9.20329 42.0163 20.5174 42.0163C31.8315 42.0163 41.0348 32.8143 41.0348 21.5002C41.0348 10.1861 31.8315 0.984104 20.5174 0.984104ZM20.5174 39.4484C10.6195 39.4484 2.56788 31.3968 2.56788 21.5002C2.56788 11.6036 10.6195 3.55199 20.5174 3.55199C30.414 3.55199 38.4682 11.6036 38.4682 21.5002C38.4682 31.3968 30.4153 39.4484 20.5174 39.4484Z" fill="#171717"/>
<path d="M20.5175 13.9812C16.3729 13.9812 13 17.3541 13 21.5C13 25.6458 16.3716 29.0188 20.5175 29.0188C24.6633 29.0188 28.0362 25.6458 28.0362 21.5C28.0362 17.3541 24.6633 13.9812 20.5175 13.9812ZM20.5175 26.4509C17.7878 26.4509 15.5679 24.2297 15.5679 21.5C15.5679 18.7703 17.7878 16.5491 20.5175 16.5491C23.2459 16.5491 25.4684 18.7703 25.4684 21.5C25.4684 24.2297 23.2471 26.4509 20.5175 26.4509Z" fill="#171717"/>
<path d="M20.5174 9.92912C14.1362 9.92912 8.94653 15.1201 8.94653 21.5C8.94653 22.21 9.52174 22.7839 10.2305 22.7839C10.9392 22.7839 11.5144 22.21 11.5144 21.5C11.5144 16.5363 15.5537 12.497 20.5174 12.497C21.2262 12.497 21.8014 11.9231 21.8014 11.2131C21.8014 10.503 21.2262 9.92912 20.5174 9.92912Z" fill="#171717"/>
<path d="M30.8043 20.2161C30.0955 20.2161 29.5203 20.79 29.5203 21.5C29.5203 26.4637 25.4823 30.503 20.5173 30.503C19.8086 30.503 19.2334 31.0769 19.2334 31.7869C19.2334 32.497 19.8086 33.0709 20.5173 33.0709C26.8972 33.0709 32.0882 27.8799 32.0882 21.5C32.0882 20.79 31.513 20.2161 30.8043 20.2161Z" fill="#171717"/>
<path d="M20.5173 4.82288C11.3204 4.82288 3.83887 12.3044 3.83887 21.5C3.83887 22.21 4.41407 22.7839 5.12281 22.7839C5.83154 22.7839 6.40675 22.21 6.40675 21.5C6.40675 13.7193 12.7366 7.39076 20.5173 7.39076C21.226 7.39076 21.8012 6.81684 21.8012 6.10682C21.8012 5.3968 21.226 4.82288 20.5173 4.82288Z" fill="#171717"/>
<path d="M35.9131 20.2161C35.2044 20.2161 34.6291 20.79 34.6291 21.5C34.6291 29.2794 28.2993 35.6092 20.5173 35.6092C19.8086 35.6092 19.2334 36.1832 19.2334 36.8932C19.2334 37.6032 19.8086 38.1771 20.5173 38.1771C29.7142 38.1771 37.1957 30.6956 37.197 21.5C37.197 20.79 36.6218 20.2161 35.9131 20.2161Z" fill="#171717"/>
<path d="M20.5174 24.014C21.9058 24.014 23.0313 22.8884 23.0313 21.5C23.0313 20.1116 21.9058 18.986 20.5174 18.986C19.129 18.986 18.0034 20.1116 18.0034 21.5C18.0034 22.8884 19.129 24.014 20.5174 24.014Z" fill="#171717"/>
</g>
<path d="M66.0762 19.9969C65.446 18.9396 64.6934 17.6766 63.8184 16.2078C62.9434 14.7339 62.3652 13.7651 62.084 13.3016C61.8079 12.8328 61.3236 12.0229 60.6309 10.8719C59.9434 9.71563 59.2298 8.53333 58.4902 7.325H64.584L68.623 14.0125L70.123 11.2313C70.8366 9.96563 71.3158 9.05417 71.5605 8.49688C71.5814 8.46042 71.6543 8.29115 71.7793 7.98906C71.9043 7.68177 72.0137 7.45521 72.1074 7.30938C72.1647 7.22604 72.2767 7.18438 72.4434 7.18438H72.5527C72.6309 7.20521 72.6882 7.24688 72.7246 7.30938C72.7611 7.37188 72.7793 7.43698 72.7793 7.50469C72.7793 7.55677 72.7689 7.61406 72.748 7.67656C72.6439 7.97344 72.3861 8.48125 71.9746 9.2C71.5684 9.91875 71.2298 10.5099 70.959 10.9734C69.5632 13.3901 67.9355 16.3979 66.0762 19.9969ZM74.7871 19.2C74.7871 18.9865 74.7923 18.6661 74.8027 18.2391C74.8132 17.812 74.8184 17.4917 74.8184 17.2781V11.6141C74.8184 11.4005 74.8132 11.0828 74.8027 10.6609C74.7923 10.2391 74.7871 9.92396 74.7871 9.71563H79.3105C79.3001 10.1427 79.2897 10.5125 79.2793 10.825C79.2689 11.1375 79.2637 11.4005 79.2637 11.6141V17.2781C79.2637 17.4917 79.2689 17.7599 79.2793 18.0828C79.2897 18.4005 79.3001 18.7729 79.3105 19.2H74.7871ZM76.959 9.39531C76.6152 9.39531 76.2663 9.33281 75.9121 9.20781C75.5579 9.08281 75.2637 8.90313 75.0293 8.66875C74.8001 8.42917 74.6855 8.15313 74.6855 7.84063C74.6855 7.52292 74.8027 7.25208 75.0371 7.02813C75.2767 6.79896 75.5736 6.62448 75.9277 6.50469C76.2819 6.37969 76.6204 6.31719 76.9434 6.31719C77.5007 6.31719 78.0423 6.45 78.5684 6.71563C79.0944 6.98125 79.3574 7.34063 79.3574 7.79375C79.3574 8.11146 79.2298 8.39271 78.9746 8.6375C78.7194 8.88229 78.4069 9.06979 78.0371 9.2C77.6673 9.33021 77.3079 9.39531 76.959 9.39531ZM80.2402 19.2H81.3574C81.3574 18.9865 81.3626 18.6661 81.373 18.2391C81.3835 17.812 81.3887 17.4917 81.3887 17.2781V11.6141C81.3887 11.4005 81.3835 11.0828 81.373 10.6609C81.3626 10.2391 81.3574 9.92396 81.3574 9.71563H85.9043C85.8991 9.92917 85.8913 10.1427 85.8809 10.3563C85.8757 10.5698 85.8678 10.7859 85.8574 11.0047C86.2845 10.7182 86.709 10.463 87.1309 10.2391C87.5579 10.0151 87.9954 9.83802 88.4434 9.70781C88.8965 9.5724 89.3574 9.50469 89.8262 9.50469H90.1309C90.5944 9.54115 91.0371 9.64271 91.459 9.80938C91.8809 9.97604 92.2168 10.2208 92.4668 10.5438C92.7012 10.8615 92.8548 11.213 92.9277 11.5984C93.0007 11.9839 93.0371 12.4474 93.0371 12.9891V17.2781C93.0371 17.3667 93.0345 17.437 93.0293 17.4891C93.0293 17.5359 93.0267 17.588 93.0215 17.6453C93.0215 17.812 93.0319 18.0568 93.0527 18.3797C93.0788 18.6974 93.0918 18.9708 93.0918 19.2H88.5449C88.5449 19.0281 88.5501 18.7677 88.5605 18.4188C88.571 18.0698 88.5762 17.812 88.5762 17.6453V11.3094C88.5762 11.0646 88.5241 10.8875 88.4199 10.7781C88.3158 10.6635 88.1751 10.6063 87.998 10.6063C87.8522 10.6063 87.6699 10.6479 87.4512 10.7313C87.2324 10.8146 87.0475 10.9031 86.8965 10.9969C86.7454 11.0854 86.5605 11.2026 86.3418 11.3484C86.123 11.4943 85.9616 11.6036 85.8574 11.6766V17.2781C85.8574 17.4917 85.8626 17.7599 85.873 18.0828C85.8835 18.4005 85.8939 18.7729 85.9043 19.2H80.2402ZM99.209 17.9969L96.2168 13.1531C95.9824 12.7729 95.7454 12.4109 95.5059 12.0672C95.2663 11.7182 94.9954 11.3328 94.6934 10.9109C94.3913 10.4891 94.11 10.0906 93.8496 9.71563H99.4199C99.7533 10.4656 100.139 11.2052 100.576 11.9344C101.014 12.6635 101.498 13.3693 102.029 14.0516L103.467 11.7938C103.498 11.7469 103.696 11.3927 104.061 10.7313C104.425 10.0698 104.654 9.69219 104.748 9.59844C104.816 9.54635 104.889 9.52031 104.967 9.52031C105.087 9.52031 105.193 9.55677 105.287 9.62969C105.386 9.72865 105.436 9.83542 105.436 9.95C105.436 10.0073 105.425 10.0672 105.404 10.1297C105.3 10.338 105.149 10.5411 104.951 10.7391C104.508 11.2755 104.162 11.7391 103.912 12.1297L100.248 17.6297C99.2428 19.1141 98.2793 19.8563 97.3574 19.8563H97.2715C97.0059 19.8563 96.7533 19.7911 96.5137 19.6609C96.2741 19.5307 96.1543 19.351 96.1543 19.1219C96.1595 19.101 96.1621 19.0802 96.1621 19.0594C96.1673 19.0385 96.1699 19.0151 96.1699 18.9891C96.1908 18.8901 96.2376 18.812 96.3105 18.7547C96.3887 18.6974 96.4746 18.6688 96.5684 18.6688C96.7246 18.6688 96.9876 18.7495 97.3574 18.9109C97.5241 18.9734 97.6517 19.0047 97.7402 19.0047C98.1986 19.0047 98.6882 18.6688 99.209 17.9969ZM107.428 9.09063C107.428 8.87708 107.423 8.55938 107.412 8.1375C107.402 7.71563 107.396 7.39792 107.396 7.18438H111.92C111.91 7.61146 111.899 7.98385 111.889 8.30156C111.878 8.61406 111.873 8.87708 111.873 9.09063V17.2781C111.873 17.4917 111.878 17.7599 111.889 18.0828C111.899 18.4005 111.91 18.7729 111.92 19.2H107.396C107.396 18.9865 107.402 18.6661 107.412 18.2391C107.423 17.812 107.428 17.4917 107.428 17.2781V9.09063ZM85.7168 32.9969C85.0866 31.9396 84.334 30.6766 83.459 29.2078C82.584 27.7339 82.0059 26.7651 81.7246 26.3016C81.4486 25.8328 80.9642 25.0229 80.2715 23.8719C79.584 22.7156 78.8704 21.5333 78.1309 20.325H84.2246L88.2637 27.0125L89.7637 24.2313C90.4772 22.9656 90.9564 22.0542 91.2012 21.4969C91.222 21.4604 91.2949 21.2911 91.4199 20.9891C91.5449 20.6818 91.6543 20.4552 91.748 20.3094C91.8053 20.226 91.9173 20.1844 92.084 20.1844H92.1934C92.2715 20.2052 92.3288 20.2469 92.3652 20.3094C92.4017 20.3719 92.4199 20.437 92.4199 20.5047C92.4199 20.5568 92.4095 20.6141 92.3887 20.6766C92.2845 20.9734 92.0267 21.4813 91.6152 22.2C91.209 22.9188 90.8704 23.5099 90.5996 23.9734C89.2038 26.3901 87.5762 29.3979 85.7168 32.9969ZM100.662 32.2V31.3484C99.5892 32.1193 98.5762 32.5047 97.623 32.5047H97.5293C96.7324 32.4943 96.0033 32.2911 95.3418 31.8953C94.6803 31.4943 94.235 30.9344 94.0059 30.2156C93.9017 29.825 93.8496 29.4734 93.8496 29.1609C93.8496 28.7078 93.9355 28.2833 94.1074 27.8875C94.2793 27.4865 94.5241 27.1349 94.8418 26.8328C95.1647 26.5307 95.5527 26.2938 96.0059 26.1219C96.5632 25.9083 97.1673 25.8016 97.8184 25.8016C98.1048 25.8016 98.4121 25.8276 98.7402 25.8797C99.0736 25.9318 99.3991 26.0073 99.7168 26.1063C100.035 26.2 100.35 26.3172 100.662 26.4578V24.5047C100.662 23.9891 100.54 23.6193 100.295 23.3953C100.055 23.1714 99.6673 23.0438 99.1309 23.0125H98.8262C98.5345 23.0125 98.2507 23.0411 97.9746 23.0984C97.6986 23.1505 97.4486 23.2286 97.2246 23.3328C97.1309 23.3797 96.946 23.5333 96.6699 23.7938C96.3939 24.049 96.1569 24.2495 95.959 24.3953C95.7663 24.5411 95.5918 24.6141 95.4355 24.6141C95.3574 24.6141 95.2871 24.5932 95.2246 24.5516C95.0632 24.4422 94.9824 24.3198 94.9824 24.1844C94.9824 23.9292 95.1986 23.6661 95.6309 23.3953C96.0632 23.1193 96.4121 22.9396 96.6777 22.8563C97.5736 22.5385 98.571 22.3797 99.6699 22.3797C100.29 22.3797 100.956 22.4318 101.67 22.5359C102.894 22.7547 103.8 23.1557 104.389 23.7391C104.712 24.0255 104.915 24.3615 104.998 24.7469C105.087 25.1323 105.131 25.6323 105.131 26.2469V30.0906C105.131 30.5021 105.16 30.8641 105.217 31.1766C105.274 31.4891 105.378 31.8302 105.529 32.2H100.662ZM100.662 30.7469V27.1141C100.423 26.9161 100.157 26.7547 99.8652 26.6297C99.5736 26.5047 99.2689 26.4422 98.9512 26.4422C98.472 26.4422 98.2324 26.8094 98.2324 27.5438V30.8875C98.2324 31.4083 98.4095 31.6688 98.7637 31.6688C98.7741 31.6635 98.7845 31.6609 98.7949 31.6609C98.8053 31.6557 98.8158 31.6531 98.8262 31.6531C99.1439 31.6167 99.4434 31.5229 99.7246 31.3719C100.006 31.2156 100.318 31.0073 100.662 30.7469ZM118.943 22.7156C118.933 23.1427 118.923 23.5125 118.912 23.825C118.902 24.1375 118.896 24.4005 118.896 24.6141V30.2781C118.896 30.4917 118.902 30.7599 118.912 31.0828C118.923 31.4005 118.933 31.7729 118.943 32.2H114.42C114.425 32.1063 114.428 31.9734 114.428 31.8016C114.433 31.6297 114.436 31.4578 114.436 31.2859C114.441 31.1141 114.446 30.9813 114.451 30.8875C113.722 31.3875 113.05 31.7651 112.436 32.0203C111.821 32.2703 111.165 32.3953 110.467 32.3953H110.193C109.1 32.3068 108.316 31.9578 107.842 31.3484C107.597 31.0359 107.436 30.6974 107.357 30.3328C107.285 29.9682 107.248 29.5411 107.248 29.0516C107.253 28.9578 107.256 28.8719 107.256 28.7938C107.261 28.7156 107.264 28.6193 107.264 28.5047V24.6141C107.264 24.3328 107.261 24.1531 107.256 24.075C107.256 23.9917 107.251 23.812 107.24 23.5359C107.235 23.2599 107.227 22.9865 107.217 22.7156H111.764C111.764 22.9344 111.751 23.2078 111.725 23.5359C111.704 23.8589 111.693 24.101 111.693 24.2625C111.699 24.325 111.701 24.3823 111.701 24.4344C111.706 24.4813 111.709 24.5411 111.709 24.6141V30.5984C111.709 31.0672 111.896 31.3016 112.271 31.3016C112.558 31.3016 112.912 31.1818 113.334 30.9422C113.761 30.6974 114.133 30.4552 114.451 30.2156V24.6141C114.451 24.4005 114.446 24.0828 114.436 23.6609C114.425 23.2391 114.42 22.924 114.42 22.7156H118.943ZM121.021 22.0906C121.021 21.8771 121.016 21.5594 121.006 21.1375C120.995 20.7156 120.99 20.3979 120.99 20.1844H125.514C125.503 20.6115 125.493 20.9839 125.482 21.3016C125.472 21.6141 125.467 21.8771 125.467 22.0906V30.2781C125.467 30.4917 125.472 30.7599 125.482 31.0828C125.493 31.4005 125.503 31.7729 125.514 32.2H120.99C120.99 31.9865 120.995 31.6661 121.006 31.2391C121.016 30.812 121.021 30.4917 121.021 30.2781V22.0906ZM132.381 19.7234C132.318 21.088 132.277 22.0854 132.256 22.7156C132.282 22.7156 132.303 22.7182 132.318 22.7234C132.339 22.7234 132.36 22.726 132.381 22.7313C132.516 22.7313 132.732 22.7208 133.029 22.7C133.326 22.674 133.558 22.6609 133.725 22.6609H133.967C134.118 22.6609 134.193 22.7573 134.193 22.95V23.0672C134.167 23.2443 134.045 23.3328 133.826 23.3328C133.8 23.3276 133.777 23.325 133.756 23.325C133.735 23.3198 133.709 23.3172 133.678 23.3172C133.37 23.2964 132.896 23.2859 132.256 23.2859L132.162 30.5984C132.162 30.8901 132.209 31.1141 132.303 31.2703C132.402 31.4214 132.529 31.4969 132.686 31.4969C132.805 31.4969 132.943 31.4474 133.1 31.3484C133.261 31.2443 133.407 31.1167 133.537 30.9656C133.605 30.8875 133.725 30.6974 133.896 30.3953C134.068 30.088 134.209 29.9161 134.318 29.8797C134.339 29.8745 134.36 29.8719 134.381 29.8719C134.402 29.8667 134.425 29.8641 134.451 29.8641C134.519 29.8641 134.576 29.8849 134.623 29.9266C134.67 29.9682 134.701 30.0177 134.717 30.075V30.1531C134.717 30.2677 134.633 30.4708 134.467 30.7625C133.936 31.549 133.219 32.0542 132.318 32.2781C131.834 32.4292 131.3 32.5047 130.717 32.5047C130.144 32.5047 129.649 32.4135 129.232 32.2313C128.878 32.0854 128.584 31.8667 128.35 31.575C128.12 31.2781 127.954 30.9396 127.85 30.5594C127.745 30.1792 127.693 29.7885 127.693 29.3875C127.699 29.3667 127.701 29.3484 127.701 29.3328C127.706 29.3172 127.709 29.3016 127.709 29.2859L127.795 23.4188C127.758 23.4188 127.66 23.424 127.498 23.4344C127.337 23.4448 127.212 23.45 127.123 23.45C126.686 23.45 126.438 23.3484 126.381 23.1453C126.381 23.1297 126.378 23.1167 126.373 23.1063C126.373 23.0906 126.37 23.0776 126.365 23.0672C126.365 22.9839 126.399 22.9135 126.467 22.8563C126.54 22.7938 126.613 22.7625 126.686 22.7625H126.912C127.084 22.7625 127.222 22.7651 127.326 22.7703C127.43 22.7703 127.542 22.7729 127.662 22.7781H127.811V21.6688C129.269 21.1167 130.792 20.4682 132.381 19.7234Z" fill="#171717"/>
<defs>
<clipPath id="clip0_1_273">
<rect width="41.0348" height="41.0348" fill="white" transform="translate(0 0.982609)"/>
</clipPath>
</defs>
</svg>
