<svg width="29" height="29" viewBox="0 0 29 29" fill="none" xmlns="http://www.w3.org/2000/svg">
<path d="M14.533 0H14.467C6.47709 0 0 6.47708 0 14.467V14.533C0 22.5229 6.47709 29 14.467 29H14.533C22.5229 29 29 22.5229 29 14.533V14.467C29 6.47708 22.5229 0 14.533 0Z" fill="#383D38"/>
<path d="M21.51 10.4911V13.2293C21.0315 13.1826 20.4097 13.0739 19.7218 12.8219C18.8237 12.4927 18.1551 12.0426 17.7172 11.6941V17.2283L17.706 17.211C17.7132 17.3208 17.7172 17.4325 17.7172 17.5453C17.7172 20.2936 15.481 22.5309 12.7317 22.5309C9.98233 22.5309 7.74609 20.2936 7.74609 17.5453C7.74609 14.797 9.98233 12.5587 12.7317 12.5587C13.0009 12.5587 13.2651 12.5801 13.5231 12.6217V15.3203C13.2752 15.2319 13.009 15.1841 12.7317 15.1841C11.4301 15.1841 10.3705 16.2428 10.3705 17.5453C10.3705 18.8478 11.4301 19.9065 12.7317 19.9065C14.0332 19.9065 15.0929 18.8468 15.0929 17.5453C15.0929 17.4966 15.0919 17.4478 15.0888 17.399V6.64453H17.8249C17.8351 6.87618 17.8442 7.10986 17.8544 7.34151C17.8727 7.7977 18.0352 8.23561 18.3187 8.59426C18.6509 9.01591 19.1417 9.50562 19.8305 9.89678C20.4757 10.2615 21.0812 10.419 21.51 10.4932V10.4911Z" fill="white"/>
</svg>
